<?xml version="1.0" encoding="utf-8"?>
<!-- Generator: Adobe Illustrator 27.5.0, SVG Export Plug-In . SVG Version: 6.00 Build 0)  -->
<svg version="1.1" id="Layer_1" xmlns="http://www.w3.org/2000/svg" xmlns:xlink="http://www.w3.org/1999/xlink" x="0px" y="0px"
	 viewBox="0 0 450 450" style="enable-background:new 0 0 450 450;" xml:space="preserve">
<g>
	<g>
		<g>
			<g>
				<g>
					<path style="fill:#172971;" d="M68.81,326.673c-0.236,0.135-0.45,0.314-0.643,0.521c-0.378,0.421-0.65,0.9-0.828,1.442
						c-0.086,0.264-0.129,0.535-0.129,0.814v14.801c0,0.1,0.007,0.2,0.021,0.3c0.029,0.2,0.1,0.378,0.229,0.543
						c0.057,0.079,0.135,0.15,0.221,0.193c29.638,17.114,59.269,34.229,88.907,51.336c-0.164-0.1-0.293-0.264-0.364-0.45
						c-0.071-0.186-0.093-0.385-0.093-0.585v-14.801c0-0.271,0.043-0.542,0.128-0.814c0.171-0.543,0.45-1.021,0.828-1.443
						c0.193-0.207,0.407-0.378,0.643-0.521L68.81,326.673z"/>
					<polygon style="fill:#283D93;" points="68.81,326.673 157.732,378.009 218.292,343.045 129.371,291.708 					"/>
					<path style="fill:#3B52B5;" d="M156.132,380.786v14.801c0,0.2,0.021,0.4,0.093,0.585c0.072,0.186,0.2,0.35,0.364,0.45
						c0,0.007,0.007,0.007,0.007,0.007c0.057,0.028,0.114,0.057,0.172,0.071c0.3,0.093,0.692-0.028,0.964-0.186l60.561-34.964
						v-1.114l-60.561,34.964c-0.029,0.014-0.057,0.036-0.086,0.043c-0.021,0.014-0.05,0.021-0.071,0.028
						c-0.028,0.007-0.057,0.014-0.079,0.014c-0.029,0.007-0.05,0.007-0.071,0c-0.021,0-0.05,0-0.071-0.007
						c-0.021-0.007-0.043-0.014-0.057-0.021c-0.021-0.014-0.043-0.021-0.057-0.036c-0.014-0.014-0.036-0.028-0.05-0.05
						c-0.014-0.014-0.021-0.036-0.036-0.057c-0.014-0.021-0.021-0.043-0.028-0.072c-0.007-0.021-0.014-0.05-0.021-0.079
						c-0.007-0.028-0.007-0.057-0.014-0.086c0-0.014,0-0.028,0-0.043v-0.371v-14.437c0-0.036,0.007-0.064,0.007-0.093
						c0.007-0.036,0.007-0.072,0.014-0.1c0.007-0.036,0.014-0.072,0.029-0.107c0.007-0.028,0.021-0.064,0.028-0.1
						c0.014-0.036,0.029-0.072,0.043-0.1c0.021-0.036,0.036-0.072,0.057-0.1c0.014-0.036,0.036-0.072,0.057-0.1
						c0.021-0.028,0.043-0.064,0.064-0.093c0.021-0.029,0.043-0.057,0.071-0.086c0.021-0.028,0.05-0.057,0.072-0.078
						c0.028-0.021,0.057-0.05,0.079-0.064c0.028-0.021,0.057-0.043,0.078-0.064c0.014-0.007,0.029-0.014,0.043-0.021l58.64-33.858
						l1.921-1.107v-1.114l-60.561,34.964c-0.236,0.143-0.45,0.314-0.643,0.521c-0.378,0.421-0.657,0.9-0.828,1.443
						C156.175,380.244,156.132,380.515,156.132,380.786z"/>
					<path style="fill:#E6E9FF;" d="M216.367,345.273v15.158c-19.857,11.48-39.399,22.755-59.275,34.235v-14.526
						c0.019-0.037,0.019-0.074,0.019-0.112c0-0.018,0.018-0.056,0.037-0.093c0-0.037,0.019-0.074,0.019-0.111
						c0.018-0.037,0.037-0.074,0.037-0.093c0.037-0.037,0.037-0.074,0.055-0.093c0.019-0.037,0.037-0.074,0.075-0.111
						c0.018-0.019,0.037-0.056,0.056-0.093c0.019-0.018,0.037-0.056,0.074-0.074c0.019-0.037,0.056-0.056,0.074-0.093
						c0.019-0.018,0.055-0.037,0.074-0.056c0.019-0.018,0.056-0.037,0.074-0.074c0.019,0,0.037,0,0.037-0.019L216.367,345.273z"/>
					<path style="opacity:0.35;fill:#ADB8E8;" d="M216.367,345.273v2.786c-19.82,11.443-39.417,22.755-59.275,34.216v-2.136
						c0.019-0.037,0.019-0.074,0.019-0.112c0-0.018,0.018-0.056,0.037-0.093c0-0.037,0.019-0.074,0.019-0.111
						c0.018-0.037,0.037-0.074,0.037-0.093c0.037-0.037,0.037-0.074,0.055-0.093c0.019-0.037,0.037-0.074,0.075-0.111
						c0.018-0.019,0.037-0.056,0.056-0.093c0.019-0.018,0.037-0.056,0.074-0.074c0.019-0.037,0.056-0.056,0.074-0.093
						c0.019-0.018,0.055-0.037,0.074-0.056c0.019-0.018,0.056-0.037,0.074-0.074c0.019,0,0.037,0,0.037-0.019L216.367,345.273z"/>
					<path style="fill:#283D93;" d="M157.089,395.038c0,0.014,0,0.029,0,0.043c0.007,0.029,0.007,0.057,0.014,0.086
						c0.007,0.029,0.014,0.057,0.021,0.079c0.007,0.029,0.014,0.05,0.028,0.072c0.014,0.021,0.021,0.043,0.036,0.057
						c0.014,0.021,0.036,0.035,0.05,0.05c0.014,0.014,0.036,0.022,0.057,0.036c0.014,0.007,0.036,0.014,0.057,0.021
						c0.021,0.007,0.05,0.007,0.071,0.007c0.021,0.007,0.043,0.007,0.071,0c0.021,0,0.05-0.007,0.079-0.014
						c0.021-0.007,0.05-0.014,0.071-0.028c0.029-0.007,0.057-0.022,0.086-0.036l60.561-34.971l-1.921-1.107c0,0.371,0,0.736,0,1.107
						c-19.87,11.474-39.412,22.755-59.283,34.229V395.038z"/>
					<g>
						<path style="fill:#455EC4;" d="M157.732,378.009c9.994-6,20.112-11.784,30.164-17.683
							c10.135-5.757,20.203-11.628,30.397-17.281c-9.994,6.001-20.112,11.784-30.165,17.683
							C177.993,366.483,167.924,372.354,157.732,378.009z"/>
					</g>
					<g>
						<path style="fill:#455EC4;" d="M157.732,395.398c9.994-6,20.112-11.784,30.164-17.683
							c10.135-5.757,20.203-11.628,30.397-17.281c-9.994,6.001-20.112,11.784-30.165,17.683
							C177.993,383.872,167.924,389.743,157.732,395.398z"/>
					</g>
					<polygon style="opacity:0.35;fill:#ADB8E8;" points="69.903,326.033 153.969,374.584 216.458,338.499 132.392,289.955 					"/>
				</g>
				<g>
					<g>
						<path style="fill:#0E5AB8;" d="M274.303,333.68c-0.1,0.07-0.189,0.13-0.289,0.189V140.64c0.1-0.06,0.189-0.12,0.289-0.189
							c0.18-0.149,0.319-0.329,0.409-0.548c0.05-0.11,0.07-0.219,0.07-0.339c0,64.413,0,128.826,0,193.239
							c0,0.11-0.02,0.22-0.07,0.329C274.622,333.351,274.483,333.53,274.303,333.68z"/>
						<path style="fill:#116BDB;" d="M273.252,135.905c0.498,1.565,0.758,3.14,0.758,4.736l-5.583,3.22
							c0-1.595-0.249-3.17-0.757-4.735c-1.007-3.121-2.622-5.902-4.816-8.344c-1.106-1.216-2.342-2.223-3.719-3.021l5.573-3.22
							c1.386,0.798,2.622,1.805,3.719,3.021C270.629,130.003,272.235,132.784,273.252,135.905z"/>
						<path style="fill:#116BDB;" d="M274.012,140.636v193.229c0,0.578-0.04,1.147-0.12,1.735c-0.159,1.146-0.608,2.193-1.336,3.15
							c-0.359,0.479-0.778,0.857-1.266,1.136c-1.865,1.077-3.719,2.144-5.583,3.22c0.489-0.279,0.917-0.658,1.276-1.137
							c0.728-0.957,1.166-2.004,1.326-3.151c0.08-0.578,0.12-1.156,0.12-1.735V143.856L274.012,140.636z"/>
						<path style="fill:#0E5AB8;" d="M274.014,333.869c0.1-0.06,0.189-0.12,0.289-0.189c0.18-0.15,0.319-0.329,0.409-0.548
							c0.05-0.11,0.07-0.219,0.07-0.329c0,1.117-0.179,2.343-0.518,3.32c-0.17,0.508-0.419,1.047-0.688,1.485
							c-0.269,0.449-0.628,0.927-0.997,1.286c-0.369,0.369-0.837,0.738-1.286,0.997c0.489-0.279,0.907-0.658,1.266-1.136
							c0.728-0.957,1.176-2.004,1.336-3.151C273.974,335.016,274.014,334.448,274.014,333.869z"/>
						<path style="fill:#0E5AB8;" d="M268.431,143.86V337.09c-0.269,0.159-0.568,0.279-0.897,0.349
							c-0.638,0.129-1.286,0.129-1.924,0c-0.319-0.07-0.618-0.189-0.897-0.349V143.86c0.279,0.16,0.578,0.269,0.897,0.339
							c0.638,0.14,1.286,0.14,1.924,0C267.863,144.13,268.162,144.02,268.431,143.86z"/>
						<path style="fill:#0E5AB8;" d="M268.431,143.86c-0.269,0.16-0.568,0.269-0.897,0.339c-0.638,0.14-1.286,0.14-1.924,0
							c-0.319-0.07-0.618-0.179-0.897-0.339c0-1.276-0.199-2.532-0.608-3.788c-0.807-2.502-2.093-4.725-3.848-6.67
							c-0.887-0.977-1.874-1.784-2.981-2.422c0-0.319,0.05-0.638,0.15-0.947c0.209-0.628,0.528-1.186,0.967-1.675
							c0.219-0.239,0.468-0.439,0.748-0.598c1.376,0.798,2.612,1.805,3.719,3.021c2.193,2.442,3.809,5.224,4.815,8.344
							C268.182,140.69,268.431,142.265,268.431,143.86z"/>
						<path style="fill:#0E5AB8;" d="M274.014,140.64c0-1.595-0.259-3.17-0.758-4.736c-1.017-3.12-2.622-5.902-4.825-8.344
							c-1.097-1.216-2.333-2.223-3.719-3.021c0.1-0.06,0.209-0.11,0.309-0.149c0.219-0.09,0.448-0.119,0.688-0.09
							c0.11,0.01,0.219,0.05,0.319,0.11c0.518,0.299,1.106,0.688,1.595,1.077c0.997,0.777,2.094,1.884,2.931,2.941
							c0.857,1.076,1.645,2.323,2.273,3.559c0.628,1.256,1.097,2.482,1.436,3.788c0.349,1.316,0.508,2.403,0.518,3.659
							c0,0.04,0,0.09,0,0.13c0,0.119-0.02,0.229-0.07,0.339c-0.09,0.219-0.229,0.399-0.409,0.548
							C274.203,140.521,274.114,140.581,274.014,140.64z"/>
						<path style="fill:#0C4FA1;" d="M136.415,61.203l120.86,69.777c1.107,0.638,2.094,1.445,2.981,2.422
							c1.755,1.944,3.041,4.167,3.848,6.67c0.409,1.256,0.608,2.512,0.608,3.788V337.09c0,0.917-0.1,1.844-0.459,2.702
							c-0.459,1.127-1.346,2.123-2.492,2.472c-1.406,0.429-3.21-0.14-4.486-0.877l-120.86-69.777
							c-1.097-0.638-2.094-1.445-2.971-2.422c-1.765-1.954-3.051-4.177-3.858-6.679c-0.399-1.246-0.608-2.502-0.608-3.779V65.49
							c0-0.907,0.11-1.834,0.458-2.692c0.469-1.127,1.356-2.123,2.492-2.472C133.344,59.897,135.139,60.466,136.415,61.203z
							 M257.295,144.09c0.01-0.867,0.01-1.745-0.209-2.572c-0.11-0.419-0.269-0.818-0.468-1.197
							c-0.199-0.379-0.429-0.748-0.698-1.087c-0.359-0.449-0.778-0.847-1.246-1.176c-0.578-0.419-1.226-0.728-1.864-1.067
							c-1.007-0.548-1.974-1.146-2.961-1.735c-1.236-0.728-2.482-1.426-3.729-2.134c-1.994-1.137-3.968-2.293-5.952-3.439
							c-2.473-1.436-4.955-2.861-7.437-4.287c-3.968-2.293-7.936-4.586-11.904-6.879c-4.955-2.861-9.92-5.722-14.874-8.584
							c-5.952-3.439-11.904-6.879-17.856-10.308c-5.952-3.439-11.914-6.869-17.855-10.309c-4.456-2.582-8.913-5.164-13.389-7.736
							c-2.971-1.715-5.962-3.429-8.933-5.155c-1.236-0.708-2.472-1.426-3.708-2.143c-0.997-0.568-2.004-1.147-2.981-1.715
							c-0.558-0.329-1.096-0.658-1.665-0.977c-0.379-0.219-0.758-0.429-1.176-0.528c-0.209-0.04-0.429-0.06-0.638-0.03
							c-0.219,0.03-0.429,0.1-0.598,0.229c-0.18,0.12-0.329,0.279-0.439,0.469c-0.11,0.189-0.179,0.388-0.229,0.598
							c-0.06,0.279-0.07,0.568-0.07,0.857c-0.01,0.788,0.02,1.565,0.03,2.353c0.02,1.286-0.01,2.582-0.03,3.868
							c-0.02,1.725,0,3.439,0,5.154c0.01,1.715,0,3.44,0,5.155c0,3.439,0.01,6.869,0.01,10.308c0,5.154,0,10.308-0.01,15.463
							c0,6.869,0,13.748,0,20.617c0,6.869,0,13.748,0,20.617c0,6.869,0,13.738,0,20.617c0,5.722,0,11.455,0,17.177
							c0,4.586,0,9.162,0,13.748c0,3.43,0,6.869,0,10.308c0,3.43,0,6.869,0,10.308c0,2.861,0,5.723,0,8.584c0,2.293,0,4.586,0,6.869
							c0,1.725,0,3.439,0,5.154c0,1.725,0.01,3.449,0,5.154c0,1.286-0.01,2.552-0.02,3.848c0,0.439,0,0.877,0.02,1.306
							c0.03,0.439,0.079,0.858,0.189,1.276c0.11,0.409,0.279,0.808,0.478,1.197c0.199,0.379,0.429,0.748,0.698,1.077
							c0.349,0.449,0.767,0.847,1.236,1.186c0.578,0.409,1.236,0.728,1.864,1.067c1.017,0.538,1.984,1.146,2.971,1.725
							c1.226,0.728,2.482,1.436,3.729,2.144c1.984,1.126,3.968,2.283,5.942,3.439c2.482,1.436,4.965,2.861,7.447,4.287
							c3.968,2.283,7.936,4.586,11.893,6.869c4.965,2.871,9.92,5.732,14.885,8.594c5.952,3.43,11.904,6.869,17.856,10.308
							c5.952,3.439,11.903,6.869,17.855,10.309c4.456,2.572,8.913,5.154,13.379,7.736c2.981,1.715,5.962,3.429,8.933,5.144
							c1.236,0.718,2.473,1.436,3.719,2.154c0.997,0.568,1.994,1.137,2.981,1.715c0.548,0.319,1.096,0.648,1.655,0.977
							c0.379,0.21,0.767,0.429,1.186,0.519c0.209,0.05,0.419,0.07,0.638,0.04c0.209-0.03,0.419-0.11,0.598-0.229
							c0.18-0.12,0.319-0.289,0.429-0.469c0.11-0.189,0.19-0.389,0.229-0.598c0.06-0.279,0.07-0.568,0.08-0.857
							c0.01-0.788-0.02-1.575-0.04-2.353c-0.02-1.286,0.02-2.582,0.03-3.878c0.02-1.715,0.01-3.429,0-5.154c0-1.715,0-3.43,0-5.154
							c0.01-3.43,0-6.869,0-10.298c0-5.154,0-10.308,0-15.462c0-6.879,0-13.748,0-20.617c0-6.879,0-13.748,0-20.617
							c0-6.869,0-13.748,0-20.617c0-5.732,0-11.455,0-17.177c0-4.586,0-9.162,0-13.748c0-3.439,0-6.869,0-10.308
							c0-3.439,0-6.869,0-10.308c0-2.862,0-5.723,0-8.584c0-2.293,0-4.586,0-6.879c0-1.715,0-3.43,0-5.154c0-1.715,0-3.45,0-5.154
							C257.275,146.662,257.285,145.396,257.295,144.09z"/>
						<polygon style="fill:#0E5AB8;" points="264.713,124.539 259.14,127.76 138.279,57.983 143.852,54.763 						"/>
						<path style="fill:#0C4FA1;" d="M138.279,57.983l120.86,69.777c-0.279,0.16-0.528,0.359-0.748,0.598
							c-0.439,0.488-0.758,1.047-0.967,1.675c-0.1,0.309-0.15,0.628-0.15,0.947l-120.86-69.777c0-0.319,0.05-0.638,0.159-0.947
							c0.199-0.628,0.518-1.186,0.957-1.675C137.751,58.342,138,58.143,138.279,57.983z"/>
						<path style="fill:#0E5AB8;" d="M257.275,341.386c1.276,0.738,3.081,1.306,4.486,0.877c1.146-0.349,2.034-1.346,2.492-2.472
							c0.359-0.858,0.459-1.785,0.459-2.702c0.279,0.159,0.578,0.279,0.897,0.349c0.638,0.129,1.286,0.129,1.924,0
							c0.329-0.07,0.628-0.189,0.897-0.349c0,0.578-0.04,1.156-0.12,1.735c-0.159,1.146-0.598,2.193-1.326,3.15
							c-0.359,0.479-0.788,0.858-1.276,1.137c-0.449,0.259-0.997,0.488-1.505,0.618c-0.498,0.14-1.097,0.22-1.615,0.229
							c-0.508,0.01-1.107-0.05-1.625-0.15c-1.017-0.199-2.163-0.658-3.14-1.216c-0.1-0.06-0.19-0.14-0.259-0.229
							c-0.14-0.189-0.229-0.399-0.259-0.628C257.285,341.616,257.275,341.496,257.275,341.386z"/>
						<path style="fill:#E0E4FF;" d="M257.086,141.518c0.22,0.827,0.22,1.705,0.209,2.572c-0.01,1.306-0.02,2.572-0.02,3.848
							c0,1.704,0,3.439,0,5.154c0,1.725,0,3.439,0,5.154c0,2.293,0,4.586,0,6.879c0,2.861,0,5.722,0,8.584c0,3.439,0,6.869,0,10.308
							c0,3.44,0,6.869,0,10.308c0,4.586,0,9.162,0,13.748c0,5.723,0,11.445,0,17.177c0,6.869,0,13.748,0,20.617
							c0,6.869,0,13.738,0,20.617c0,6.869,0,13.738,0,20.617c0,5.154,0,10.308,0,15.462c0,3.43,0.01,6.869,0,10.298
							c0,1.725,0,3.439,0,5.154c0.01,1.725,0.02,3.44,0,5.154c-0.01,1.296-0.05,2.592-0.03,3.878c0.02,0.778,0.05,1.565,0.04,2.353
							c-0.01,0.289-0.02,0.578-0.08,0.857c-0.04,0.21-0.12,0.409-0.229,0.598c-0.11,0.18-0.249,0.349-0.429,0.469
							c-0.18,0.12-0.389,0.199-0.598,0.229c-0.219,0.03-0.429,0.01-0.638-0.04c-0.419-0.09-0.808-0.309-1.186-0.519
							c-0.559-0.329-1.107-0.658-1.655-0.977c-0.987-0.578-1.984-1.146-2.981-1.715c-1.246-0.718-2.482-1.436-3.719-2.154
							c-2.971-1.715-5.952-3.43-8.933-5.144c-4.466-2.582-8.923-5.164-13.379-7.736c-5.952-3.44-11.904-6.869-17.855-10.309
							c-5.952-3.439-11.904-6.879-17.856-10.308c-4.965-2.861-9.919-5.723-14.885-8.594c-3.958-2.283-7.925-4.586-11.893-6.869
							c-2.482-1.426-4.965-2.851-7.447-4.287c-1.974-1.157-3.958-2.313-5.942-3.439c-1.246-0.708-2.502-1.416-3.729-2.144
							c-0.987-0.578-1.954-1.186-2.971-1.725c-0.628-0.339-1.286-0.658-1.864-1.067c-0.469-0.339-0.887-0.738-1.236-1.186
							c-0.269-0.329-0.499-0.698-0.698-1.077c-0.199-0.389-0.369-0.788-0.478-1.197c-0.11-0.419-0.16-0.837-0.189-1.276
							c-0.02-0.428-0.02-0.867-0.02-1.306c0.01-1.296,0.02-2.562,0.02-3.848c0.01-1.705,0-3.43,0-5.154c0-1.715,0-3.429,0-5.154
							c0-2.283,0-4.576,0-6.869c0-2.861,0-5.723,0-8.584c0-3.439,0-6.879,0-10.308c0-3.439,0-6.879,0-10.308
							c0-4.586,0-9.162,0-13.748c0-5.723,0-11.455,0-17.177c0-6.879,0-13.748,0-20.617c0-6.869,0-13.748,0-20.617
							c0-6.869,0-13.748,0-20.617c0.01-5.154,0.01-10.308,0.01-15.463c0-3.439-0.01-6.869-0.01-10.308c0-1.715,0.01-3.44,0-5.155
							c0-1.715-0.02-3.429,0-5.154c0.02-1.286,0.05-2.582,0.03-3.868c-0.01-0.787-0.04-1.565-0.03-2.353
							c0-0.289,0.01-0.578,0.07-0.857c0.05-0.21,0.12-0.409,0.229-0.598c0.11-0.189,0.259-0.349,0.439-0.469
							c0.169-0.13,0.379-0.199,0.598-0.229c0.209-0.03,0.429-0.01,0.638,0.03c0.419,0.1,0.798,0.309,1.176,0.528
							c0.568,0.319,1.107,0.648,1.665,0.977c0.977,0.568,1.984,1.146,2.981,1.715c1.236,0.718,2.472,1.436,3.708,2.143
							c2.971,1.725,5.962,3.44,8.933,5.155c4.476,2.572,8.933,5.154,13.389,7.736c5.942,3.44,11.904,6.869,17.855,10.309
							c5.952,3.429,11.904,6.869,17.856,10.308c4.955,2.861,9.92,5.723,14.874,8.584c3.968,2.293,7.936,4.586,11.904,6.879
							c2.482,1.426,4.965,2.851,7.437,4.287c1.984,1.147,3.958,2.303,5.952,3.439c1.246,0.708,2.492,1.406,3.729,2.134
							c0.987,0.588,1.954,1.186,2.961,1.735c0.638,0.339,1.286,0.648,1.864,1.067c0.468,0.329,0.887,0.728,1.246,1.176
							c0.269,0.339,0.499,0.708,0.698,1.087C256.817,140.7,256.976,141.099,257.086,141.518z"/>
						<path style="fill:#0C4FA1;" d="M145.168,54.633c40.287,23.259,80.574,46.518,120.86,69.777c-0.1-0.06-0.21-0.1-0.319-0.11
							c-0.239-0.03-0.468,0-0.688,0.09c-0.1,0.04-0.209,0.09-0.309,0.149l-120.86-69.777c0.1-0.06,0.21-0.11,0.319-0.16
							c0.209-0.08,0.439-0.11,0.678-0.08C144.969,54.534,145.068,54.573,145.168,54.633z"/>
						<path style="fill:#0C4FA1;" d="M143.852,54.763l-5.573,3.22c-0.498-0.289-1.017-0.538-1.555-0.768
							c-1.077-0.429-2.213-0.578-3.4-0.419c-0.588,0.07-1.126,0.249-1.625,0.528c1.825-1.047,3.629-2.094,5.454-3.141
							c0.04-0.03,0.09-0.05,0.129-0.08c0.489-0.279,1.027-0.459,1.615-0.528c1.197-0.16,2.323-0.01,3.4,0.419
							C142.835,54.224,143.363,54.474,143.852,54.763z"/>
						<path style="fill:#003684;" d="M142.297,53.995c-1.077-0.429-2.203-0.578-3.4-0.419c-0.588,0.07-1.127,0.249-1.615,0.528
							c0.449-0.259,0.997-0.488,1.506-0.618c0.498-0.129,1.096-0.209,1.615-0.219c0.508-0.01,1.107,0.04,1.625,0.149
							c1.017,0.199,2.174,0.648,3.14,1.216c-0.1-0.06-0.199-0.1-0.319-0.11c-0.239-0.03-0.469,0-0.678,0.08
							c-0.109,0.05-0.219,0.1-0.319,0.16C143.363,54.474,142.835,54.224,142.297,53.995z"/>
						<path style="fill:#003684;" d="M136.415,271.61l120.86,69.777c0,0.11,0.01,0.229,0.03,0.349
							c0.03,0.229,0.12,0.439,0.259,0.628c0.07,0.09,0.159,0.17,0.259,0.229c-40.287-23.259-80.574-46.518-120.86-69.777
							c-0.1-0.06-0.18-0.14-0.259-0.229c-0.14-0.19-0.229-0.399-0.259-0.638C136.425,271.839,136.415,271.72,136.415,271.61z"/>
						<path style="fill:#003684;" d="M129.436,62.798c-0.349,0.857-0.458,1.785-0.458,2.692c-0.1-0.05-0.189-0.119-0.289-0.189
							c-0.18-0.14-0.319-0.329-0.409-0.548c-0.05-0.11-0.07-0.219-0.07-0.329c0-1.127,0.179-2.353,0.518-3.33
							c0.169-0.498,0.419-1.047,0.688-1.485c0.269-0.449,0.628-0.917,0.997-1.286c0.369-0.369,0.837-0.728,1.286-0.997
							c0.499-0.279,1.037-0.459,1.625-0.528c1.186-0.159,2.323-0.01,3.4,0.419c0.538,0.229,1.057,0.479,1.555,0.768
							c-0.279,0.16-0.529,0.359-0.748,0.598c-0.439,0.488-0.758,1.047-0.957,1.675c-0.11,0.309-0.159,0.628-0.159,0.947
							c-1.276-0.738-3.071-1.306-4.486-0.877C130.792,60.675,129.905,61.672,129.436,62.798z"/>
						<path style="fill:#003684;" d="M128.978,65.49v193.239c-0.1-0.06-0.189-0.13-0.289-0.2c-0.18-0.139-0.319-0.319-0.409-0.538
							c-0.05-0.11-0.07-0.229-0.07-0.339c0-64.413,0-128.816,0-193.229c0,0.11,0.02,0.219,0.07,0.329
							c0.089,0.219,0.229,0.409,0.409,0.548C128.788,65.371,128.878,65.44,128.978,65.49z"/>
						<path style="fill:#003684;" d="M133.932,270.463c-0.957-0.937-1.784-1.954-2.552-3.13c-0.768-1.166-1.446-2.472-1.954-3.748
							c-0.488-1.256-0.897-2.762-1.077-4.008c-0.09-0.618-0.14-1.326-0.14-1.924c0,0.11,0.02,0.229,0.07,0.339
							c0.089,0.219,0.229,0.399,0.409,0.538c0.1,0.07,0.189,0.14,0.289,0.2c0,1.276,0.209,2.532,0.608,3.779
							c0.808,2.502,2.094,4.725,3.858,6.679c0.877,0.977,1.874,1.784,2.971,2.422c0,0.11,0.01,0.229,0.03,0.339
							c0.03,0.239,0.12,0.448,0.259,0.638c0.08,0.09,0.159,0.17,0.259,0.229c-0.04-0.03-0.08-0.05-0.12-0.07
							C135.767,272.098,134.91,271.43,133.932,270.463z"/>
						<path style="fill:#0E5AB8;" d="M274.012,333.865c0,0.578-0.04,1.147-0.12,1.735c-0.159,1.146-0.608,2.193-1.336,3.15
							c-0.359,0.479-0.778,0.857-1.266,1.136c-1.865,1.077-3.719,2.144-5.583,3.22c0.489-0.279,0.917-0.658,1.276-1.137
							c0.728-0.957,1.166-2.004,1.326-3.151c0.08-0.578,0.12-1.156,0.12-1.735L274.012,333.865z"/>
					</g>
					<g>
						<path style="fill:#003684;" d="M274.794,150.866c0,0.239-0.11,0.488-0.299,0.698c-0.12,0.13-0.299,0.269-0.479,0.379v32.262
							v2.143c0.18-0.1,0.359-0.239,0.479-0.379c0.189-0.209,0.289-0.458,0.289-0.698
							C274.784,173.806,274.794,162.341,274.794,150.866z"/>
						<path style="fill:#0C4FA1;" d="M274.017,184.204v2.143c-1.854,1.077-3.718,2.144-5.573,3.22v-34.405
							c1.854-1.077,3.719-2.144,5.573-3.22V184.204z"/>
						<path style="fill:#003684;" d="M268.444,155.163v34.405c-0.239,0.14-0.488,0.239-0.788,0.309
							c-0.718,0.189-1.585,0.17-2.283-0.03c-0.23-0.07-0.469-0.18-0.648-0.279v-34.405c0.18,0.1,0.418,0.209,0.648,0.269
							c0.698,0.21,1.565,0.229,2.283,0.04C267.956,155.393,268.205,155.303,268.444,155.163z"/>
						<path style="fill:#003684;" d="M264.725,155.163v34.405c-1.306-0.757-2.612-1.505-3.918-2.263c0-11.465,0-22.93,0-34.405
							C262.113,153.658,263.419,154.405,264.725,155.163z"/>
					</g>
					<g>
						<path style="fill:#003684;" d="M274.782,188.102c0,0.239-0.109,0.489-0.299,0.698c-0.12,0.13-0.299,0.269-0.479,0.379v32.261
							v2.143c0.18-0.1,0.359-0.239,0.479-0.379c0.189-0.209,0.289-0.458,0.289-0.698
							C274.772,211.042,274.782,199.577,274.782,188.102z"/>
						<path style="fill:#0C4FA1;" d="M274.004,221.44v2.143c-1.854,1.077-3.718,2.144-5.573,3.22v-34.405
							c1.854-1.077,3.719-2.143,5.573-3.22V221.44z"/>
						<path style="fill:#003684;" d="M268.431,192.399v34.405c-0.239,0.14-0.489,0.239-0.788,0.309
							c-0.718,0.189-1.585,0.17-2.283-0.03c-0.229-0.07-0.468-0.18-0.648-0.279v-34.405c0.18,0.1,0.419,0.209,0.648,0.269
							c0.698,0.21,1.565,0.229,2.283,0.04C267.943,192.628,268.192,192.539,268.431,192.399z"/>
						<path style="fill:#003684;" d="M264.713,192.399v34.405c-1.306-0.758-2.612-1.505-3.918-2.263c0-11.465,0-22.93,0-34.405
							C262.101,190.894,263.406,191.642,264.713,192.399z"/>
					</g>
					<g>
						<path style="fill:#003684;" d="M274.782,225.408c0,0.239-0.109,0.488-0.299,0.698c-0.12,0.129-0.299,0.269-0.479,0.379v32.262
							v2.143c0.18-0.099,0.359-0.239,0.479-0.379c0.189-0.209,0.289-0.459,0.289-0.698
							C274.772,248.347,274.782,236.883,274.782,225.408z"/>
						<path style="fill:#0C4FA1;" d="M274.004,258.746v2.144c-1.854,1.077-3.718,2.143-5.573,3.22v-34.405
							c1.854-1.077,3.719-2.143,5.573-3.22V258.746z"/>
						<path style="fill:#003684;" d="M268.431,229.704v34.405c-0.239,0.14-0.489,0.239-0.788,0.309
							c-0.718,0.189-1.585,0.169-2.283-0.03c-0.229-0.07-0.468-0.18-0.648-0.279v-34.405c0.18,0.1,0.419,0.209,0.648,0.269
							c0.698,0.209,1.565,0.229,2.283,0.04C267.943,229.934,268.192,229.844,268.431,229.704z"/>
						<path style="fill:#003684;" d="M264.713,229.704v34.405c-1.306-0.758-2.612-1.505-3.918-2.263c0-11.465,0-22.93,0-34.405
							C262.101,228.199,263.406,228.947,264.713,229.704z"/>
					</g>
					<g>
						<path style="fill:#003684;" d="M274.779,262.708c0,0.239-0.11,0.488-0.299,0.698c-0.12,0.13-0.299,0.269-0.479,0.379v32.262
							v2.143c0.18-0.1,0.359-0.239,0.479-0.379c0.189-0.209,0.289-0.458,0.289-0.698
							C274.769,285.648,274.779,274.183,274.779,262.708z"/>
						<path style="fill:#0C4FA1;" d="M274.001,296.046v2.143c-1.854,1.077-3.718,2.144-5.573,3.22v-34.405
							c1.854-1.077,3.719-2.144,5.573-3.22V296.046z"/>
						<path style="fill:#003684;" d="M268.431,267.009v34.405c-0.239,0.14-0.489,0.239-0.788,0.309
							c-0.718,0.189-1.585,0.169-2.283-0.03c-0.229-0.07-0.468-0.179-0.648-0.279v-34.405c0.18,0.1,0.419,0.209,0.648,0.269
							c0.698,0.209,1.565,0.229,2.283,0.04C267.943,267.238,268.192,267.149,268.431,267.009z"/>
						<path style="fill:#003684;" d="M264.713,267.009v34.405c-1.306-0.758-2.612-1.506-3.918-2.263c0-11.465,0-22.93,0-34.405
							C262.101,265.504,263.406,266.252,264.713,267.009z"/>
					</g>
					<g>
						<polygon style="fill:#172971;" points="247.9,281.324 247.9,292.061 145.633,233.011 145.633,222.284 						"/>
						<polygon style="fill:#172971;" points="247.9,265.223 247.9,275.96 145.633,216.911 145.633,206.174 						"/>
						<polygon style="fill:#172971;" points="247.9,249.122 247.9,259.849 145.633,200.81 145.633,190.073 						"/>
						<polygon style="fill:#172971;" points="247.9,233.011 247.9,243.749 145.633,184.709 145.633,173.972 						"/>
						<polygon style="fill:#172971;" points="247.9,216.911 247.9,227.648 145.633,168.609 145.633,157.871 						"/>
						<polygon style="fill:#172971;" points="247.9,200.946 247.9,211.684 145.633,152.644 145.633,141.907 						"/>
						<polygon style="fill:#172971;" points="247.9,177.876 247.9,182.356 145.633,123.307 145.633,118.827 						"/>
						<polygon style="fill:#D85729;" points="229.307,145.571 229.307,159.529 164.227,121.953 164.227,107.996 						"/>
					</g>
				</g>
				<g>
					<path style="fill:#003684;" d="M71.424,314.089c-0.243,0.136-0.45,0.314-0.642,0.521c-0.378,0.421-0.657,0.899-0.828,1.442
						c-0.093,0.264-0.136,0.535-0.136,0.814v7.397c0,0.1,0.007,0.2,0.021,0.3c0.029,0.2,0.107,0.378,0.229,0.543
						c0.064,0.086,0.136,0.15,0.221,0.2c27.76,16.029,55.52,32.051,83.28,48.08c-0.036-0.028-0.071-0.057-0.107-0.086
						c-0.228-0.214-0.321-0.607-0.321-0.928v-7.404c0-0.272,0.043-0.543,0.136-0.814c0.171-0.536,0.45-1.014,0.828-1.435
						c0.193-0.214,0.4-0.386,0.643-0.521L71.424,314.089z"/>
					<polygon style="fill:#084DA1;" points="71.424,314.098 154.747,362.207 217.236,326.121 133.913,278.02 					"/>
					<path style="fill:#E6E9FF;" d="M215.308,328.332v7.783l-61.207,35.331v-7.115c0.018-0.018,0.018-0.056,0.018-0.093
						c0-0.018,0.019-0.056,0.019-0.093c0.019-0.037,0.019-0.074,0.037-0.112c0.019-0.037,0.019-0.074,0.037-0.093
						c0.018-0.037,0.037-0.074,0.056-0.112c0.019-0.037,0.037-0.056,0.056-0.093c0.019-0.037,0.037-0.056,0.056-0.093
						c0.037-0.037,0.037-0.056,0.074-0.093c0.037-0.019,0.037-0.056,0.075-0.074c0.037-0.037,0.056-0.037,0.074-0.074
						c0.037-0.019,0.056-0.037,0.074-0.056c0.019-0.019,0.056-0.037,0.074-0.037L215.308,328.332z"/>
					<path style="fill:#084DA1;" d="M154.105,371.815c0,0.014,0,0.035,0,0.05c0,0.029,0.007,0.057,0.014,0.086
						c0,0.029,0.007,0.05,0.014,0.079c0.014,0.021,0.021,0.05,0.035,0.072c0.007,0.021,0.021,0.035,0.036,0.057
						c0.014,0.014,0.029,0.036,0.05,0.05c0.014,0.007,0.036,0.021,0.05,0.035c0.021,0.007,0.043,0.014,0.064,0.021
						c0.021,0.007,0.043,0.007,0.071,0.007c0.021,0,0.043,0,0.072,0c0.021,0,0.05-0.007,0.071-0.014
						c0.029-0.007,0.05-0.014,0.079-0.028c0.029-0.014,0.05-0.021,0.079-0.043l62.496-36.078l-1.921-1.114c0,0.371,0,0.742,0,1.114
						l-61.211,35.336V371.815z"/>
					<path style="fill:#0F5EBF;" d="M154.747,372.191c-0.028,0.021-0.057,0.028-0.086,0.043c-0.028,0.014-0.05,0.021-0.079,0.028
						c-0.021,0.007-0.05,0.014-0.071,0.014c-0.029,0-0.05,0-0.072,0c-0.028,0-0.05,0-0.071-0.007
						c-0.021-0.007-0.043-0.014-0.064-0.021c-0.014-0.014-0.036-0.029-0.05-0.036c-0.021-0.014-0.036-0.036-0.05-0.05
						c-0.014-0.022-0.028-0.036-0.036-0.057c-0.014-0.021-0.021-0.05-0.035-0.072c-0.007-0.028-0.014-0.05-0.014-0.079
						c-0.007-0.028-0.014-0.057-0.014-0.086c0-0.014,0-0.035,0-0.05v-0.371v-7.026c0-0.028,0-0.05,0-0.079
						c0.007-0.029,0.007-0.064,0.014-0.1c0.007-0.029,0.014-0.064,0.021-0.1c0.014-0.036,0.021-0.065,0.036-0.1
						c0.014-0.036,0.021-0.072,0.043-0.107c0.014-0.035,0.028-0.064,0.043-0.1c0.021-0.036,0.036-0.064,0.057-0.1
						c0.021-0.029,0.043-0.057,0.064-0.093c0.028-0.029,0.043-0.057,0.071-0.086c0.029-0.028,0.043-0.05,0.072-0.079
						c0.036-0.028,0.05-0.043,0.078-0.071c0.036-0.029,0.05-0.036,0.079-0.057c0.021-0.014,0.043-0.028,0.064-0.043l60.568-34.971
						l1.921-1.107v-1.114l-62.489,36.085c-0.242,0.136-0.449,0.307-0.643,0.521c-0.378,0.422-0.657,0.9-0.828,1.435
						c-0.093,0.271-0.136,0.543-0.136,0.814v7.404c0,0.321,0.093,0.714,0.321,0.928c0.036,0.028,0.071,0.057,0.107,0.086
						c0.014,0.007,0.028,0.014,0.043,0.021c0.172,0.093,0.386,0.121,0.578,0.093c0.2-0.021,0.386-0.107,0.557-0.2l62.489-36.085
						v-1.107L154.747,372.191z"/>
					<path style="opacity:0.35;fill:#ADB8E8;" d="M215.308,328.332v2.043l-61.207,35.349v-1.393
						c0.018-0.018,0.018-0.056,0.018-0.093c0-0.018,0.019-0.056,0.019-0.093c0.019-0.037,0.019-0.074,0.037-0.112
						c0.019-0.037,0.019-0.074,0.037-0.093c0.018-0.037,0.037-0.074,0.056-0.112c0.019-0.037,0.037-0.056,0.056-0.093
						c0.019-0.037,0.037-0.056,0.056-0.093c0.037-0.037,0.037-0.056,0.074-0.093c0.037-0.019,0.037-0.056,0.075-0.074
						c0.037-0.037,0.056-0.037,0.074-0.074c0.037-0.019,0.056-0.037,0.074-0.056c0.019-0.019,0.056-0.037,0.074-0.037
						L215.308,328.332z"/>
					<polygon style="opacity:0.35;fill:#ADB8E8;" points="73.125,313.678 155.943,361.506 216.504,326.541 133.686,278.714 					"/>
				</g>
				<g>
					<path style="fill:#DB4B18;" d="M79.022,295.968c-0.235,0.135-0.45,0.314-0.643,0.521c-0.378,0.421-0.649,0.9-0.828,1.442
						c-0.086,0.264-0.129,0.535-0.129,0.814v14.801c0,0.1,0.007,0.2,0.021,0.3c0.028,0.2,0.1,0.379,0.228,0.543
						c0.057,0.078,0.135,0.15,0.221,0.193c29.638,17.114,53.166,30.721,82.804,47.828c-0.164-0.1-0.293-0.264-0.364-0.45
						c-0.072-0.186-0.093-0.386-0.093-0.586v-14.801c0-0.271,0.043-0.543,0.128-0.814c0.172-0.543,0.45-1.021,0.829-1.442
						c0.193-0.207,0.407-0.379,0.643-0.521L79.022,295.968z"/>
					<polygon style="fill:#FC6C44;" points="79.022,295.968 161.84,343.796 222.401,308.831 139.583,261.003 					"/>
					<path style="fill:#FFD562;" d="M160.24,346.573v14.801c0,0.2,0.021,0.4,0.093,0.586c0.071,0.186,0.2,0.35,0.364,0.45
						c0,0.007,0.007,0.007,0.007,0.007c0.057,0.029,0.114,0.057,0.171,0.071c0.3,0.093,0.693-0.028,0.964-0.186l60.561-34.964
						v-1.114l-60.561,34.964c-0.028,0.014-0.057,0.036-0.086,0.043c-0.021,0.014-0.05,0.021-0.072,0.029
						c-0.029,0.007-0.057,0.014-0.078,0.014c-0.029,0.007-0.05,0.007-0.072,0c-0.021,0-0.05,0-0.071-0.007
						c-0.021-0.007-0.043-0.014-0.057-0.021c-0.021-0.014-0.043-0.021-0.057-0.036c-0.014-0.014-0.036-0.028-0.05-0.05
						c-0.014-0.014-0.021-0.036-0.036-0.057c-0.014-0.022-0.021-0.043-0.029-0.071c-0.007-0.022-0.014-0.05-0.021-0.079
						c-0.007-0.029-0.007-0.057-0.014-0.086c0-0.014,0-0.029,0-0.043v-0.371v-14.437c0-0.036,0.007-0.064,0.007-0.093
						c0.007-0.036,0.007-0.072,0.014-0.1c0.007-0.036,0.014-0.072,0.029-0.107c0.007-0.029,0.021-0.064,0.029-0.1
						c0.014-0.036,0.028-0.072,0.043-0.1c0.021-0.036,0.035-0.071,0.057-0.1c0.014-0.036,0.036-0.071,0.057-0.1
						c0.021-0.029,0.043-0.064,0.064-0.093c0.021-0.029,0.043-0.057,0.072-0.086c0.021-0.029,0.05-0.057,0.071-0.079
						c0.029-0.021,0.057-0.05,0.079-0.064c0.028-0.022,0.057-0.043,0.079-0.064c0.014-0.007,0.028-0.014,0.043-0.022l58.64-33.857
						l1.921-1.107v-1.114l-60.561,34.964c-0.235,0.143-0.45,0.314-0.643,0.521c-0.379,0.421-0.657,0.899-0.829,1.442
						C160.283,346.03,160.24,346.302,160.24,346.573z"/>
					<path style="fill:#E6E9FF;" d="M220.472,311.056v15.176c-19.857,11.461-39.399,22.755-59.275,34.216v-14.526
						c0.018-0.037,0.018-0.074,0.018-0.093c0.019-0.037,0.019-0.074,0.037-0.112c0-0.037,0.019-0.074,0.019-0.093
						c0.018-0.037,0.037-0.074,0.055-0.112c0.019-0.037,0.019-0.074,0.056-0.093c0-0.037,0.037-0.074,0.056-0.112
						c0.019-0.018,0.037-0.056,0.056-0.093c0.019-0.018,0.037-0.056,0.074-0.074c0.019-0.037,0.056-0.055,0.074-0.074
						c0.019-0.037,0.056-0.056,0.075-0.074c0.037-0.019,0.056-0.037,0.074-0.056c0.018-0.019,0.037-0.019,0.056-0.037
						L220.472,311.056z"/>
					<path style="opacity:0.35;fill:#ADB8E8;" d="M220.472,311.056v1.858c-19.82,11.443-39.436,22.774-59.275,34.235v-1.226
						c0.018-0.037,0.018-0.074,0.018-0.093c0.019-0.037,0.019-0.074,0.037-0.112c0-0.037,0.019-0.074,0.019-0.093
						c0.018-0.037,0.037-0.074,0.055-0.112c0.019-0.037,0.019-0.074,0.056-0.093c0-0.037,0.037-0.074,0.056-0.112
						c0.019-0.018,0.037-0.056,0.056-0.093c0.019-0.018,0.037-0.056,0.074-0.074c0.019-0.037,0.056-0.055,0.074-0.074
						c0.019-0.037,0.056-0.056,0.075-0.074c0.037-0.019,0.056-0.037,0.074-0.056c0.018-0.019,0.037-0.019,0.056-0.037
						L220.472,311.056z"/>
					<path style="fill:#FC6C44;" d="M161.197,360.824c0,0.014,0,0.029,0,0.043c0.007,0.028,0.007,0.057,0.014,0.086
						c0.007,0.028,0.014,0.057,0.021,0.079c0.007,0.028,0.014,0.05,0.029,0.071c0.014,0.021,0.021,0.043,0.036,0.057
						c0.014,0.021,0.036,0.036,0.05,0.05c0.014,0.014,0.036,0.021,0.057,0.036c0.014,0.007,0.036,0.014,0.057,0.021
						c0.021,0.007,0.05,0.007,0.071,0.007c0.021,0.007,0.043,0.007,0.072,0c0.021,0,0.05-0.007,0.078-0.014
						c0.021-0.007,0.05-0.014,0.072-0.029c0.028-0.007,0.057-0.021,0.086-0.035l60.561-34.971l-1.921-1.107c0,0.371,0,0.736,0,1.107
						c-19.871,11.474-39.413,22.755-59.283,34.229V360.824z"/>
				</g>
				<g>
					<g>
						<polygon style="fill:#FFD562;" points="146.547,333.131 141.334,393.308 136.096,396.324 141.309,336.16 						"/>
						<polygon style="fill:#FC6C44;" points="146.547,333.131 141.309,336.16 138.702,334.658 143.941,331.629 						"/>
						<polygon style="fill:#DB4B18;" points="141.309,336.16 136.096,396.324 133.489,394.822 134.581,382.161 135.363,373.224 
							135.959,366.323 136.232,363.158 136.729,357.398 137.337,350.484 137.61,347.319 138.107,341.559 138.702,334.658 						"/>
						<polygon style="fill:#DB4B18;" points="137.61,347.319 137.337,350.484 118.631,339.685 116.496,338.456 113.89,336.954 
							114.162,333.789 						"/>
						<polygon style="fill:#FC6C44;" points="136.729,357.398 136.232,363.158 112.785,349.615 118.023,346.599 						"/>
						<polygon style="fill:#DB4B18;" points="136.232,363.158 135.959,366.323 117.253,355.524 115.118,354.295 112.512,352.78 
							112.785,349.615 						"/>
						<polygon style="fill:#FC6C44;" points="135.363,373.224 134.581,382.161 134.855,378.984 111.419,365.454 116.658,362.425 
													"/>
						<polygon style="fill:#DB4B18;" points="134.855,378.984 134.581,382.161 115.876,371.362 113.741,370.121 111.134,368.619 
							111.419,365.454 						"/>
						<polygon style="fill:#FFD562;" points="120.493,318.087 119.401,330.761 114.162,333.789 115.255,321.116 						"/>
						<polygon style="fill:#FC6C44;" points="118.06,316.684 120.493,318.087 115.255,321.116 112.822,319.713 112.648,319.614 
							117.899,316.585 						"/>
						<polygon style="fill:#FFD562;" points="117.253,355.524 116.658,362.425 111.419,365.454 112.512,352.78 115.118,354.295 
													"/>
						<polygon style="fill:#FFD562;" points="113.741,370.121 115.876,371.362 115.28,378.263 110.042,381.292 111.134,368.619 
													"/>
						<polygon style="fill:#FFD562;" points="113.89,336.954 116.496,338.456 118.631,339.685 118.023,346.599 112.785,349.615 
							114.162,333.789 						"/>
						<polygon style="fill:#DB4B18;" points="112.822,319.713 115.255,321.116 114.162,333.789 112.785,349.615 112.512,352.78 
							111.419,365.454 111.134,368.619 110.042,381.292 107.435,379.778 112.648,319.614 						"/>
					</g>
					<g>
						<path style="fill:#FFFFFF;" d="M141.309,336.16c1.707-1.077,3.453-2.087,5.238-3.029
							C144.84,334.209,143.094,335.218,141.309,336.16z"/>
					</g>
					<g>
						<path style="fill:#FFFFFF;" d="M115.255,321.128c1.707-1.077,3.453-2.087,5.238-3.029
							C118.786,319.177,117.04,320.186,115.255,321.128z"/>
					</g>
					<polygon style="fill:#FC6C44;" points="138.107,341.559 137.61,347.319 114.162,333.789 119.401,330.761 					"/>
				</g>
				<g>
					<path style="fill:#F7F8FB;" d="M161.84,343.796c9.994-6,20.113-11.784,30.165-17.683c10.135-5.756,20.203-11.628,30.396-17.281
						c-9.993,6.001-20.112,11.785-30.165,17.683C182.101,332.27,172.033,338.141,161.84,343.796z"/>
				</g>
				<g>
					<path style="fill:#F7F8FB;" d="M161.84,361.185c9.994-6,20.113-11.783,30.165-17.683c10.135-5.756,20.203-11.628,30.396-17.281
						c-9.993,6.001-20.112,11.784-30.165,17.683C182.101,349.659,172.033,355.53,161.84,361.185z"/>
				</g>
			</g>
			<g>
				<path style="fill:#4D65C2;" d="M275.211,91.661c0,0,0.758-0.516,0.257-1.712l-0.809-0.247l-0.325,0.52l0.527,0.789l-0.115,0.42
					L275.211,91.661z"/>
				<path style="fill:#172971;" d="M272,95.359c0,0,0.308-0.213,0.346-0.31l-0.364,0.17L272,95.359z"/>
				<path style="fill:#4D65C2;" d="M272.248,93.639c0,0,0.727,1.118-0.204,1.676l-0.855-1.632l0.518-0.322L272.248,93.639z"/>
				<path style="fill:#7D90DB;" d="M278.457,87.917l-0.887,0.506c0.08-0.097,0.124-0.213,0.133-0.364
					c0.009-0.284-0.053-0.55-0.169-0.79c-0.062-0.115-0.133-0.231-0.222-0.337l0.887-0.507c0.08,0.106,0.159,0.214,0.221,0.338
					c0.115,0.23,0.177,0.497,0.168,0.789C278.582,87.696,278.537,87.811,278.457,87.917z"/>
				<path style="fill:#283D93;" d="M277.313,86.933c-0.115,0.071-0.231,0.142-0.346,0.222c-0.222,0.16-0.435,0.337-0.639,0.523
					c-0.098,0.089-0.186,0.186-0.275,0.302c-2.572-3.326-5.544-6.378-8.906-8.932c-2.679-2.049-5.597-3.77-8.826-4.808
					c-2.413-0.772-5.003-1.162-7.487-0.825c-0.053-0.133-0.089-0.266-0.106-0.417c-0.027-0.293,0.035-0.567,0.195-0.825
					c0.08-0.133,0.178-0.231,0.302-0.302c2.573-0.346,5.251,0.053,7.753,0.86c3.335,1.064,6.351,2.856,9.128,4.967
					C271.574,80.342,274.661,83.5,277.313,86.933z"/>
				<path style="fill:#7D90DB;" d="M275.255,91.616l-0.887,0.505c0.08-0.097,0.124-0.222,0.133-0.364
					c0.009-0.293-0.053-0.559-0.177-0.79c-0.062-0.124-0.133-0.239-0.222-0.346l0.887-0.505c0.089,0.106,0.16,0.213,0.222,0.337
					c0.124,0.24,0.178,0.506,0.178,0.799C275.379,91.395,275.335,91.51,275.255,91.616z"/>
				<path style="fill:#4D65C2;" d="M273.756,90.845c0.115-0.08,0.231-0.151,0.346-0.222c0.089,0.107,0.16,0.222,0.222,0.346
					c0.124,0.231,0.186,0.497,0.177,0.79c-0.009,0.142-0.053,0.266-0.133,0.364c-0.124,0.071-0.257,0.107-0.408,0.115
					c-0.302,0-0.577-0.08-0.807-0.257c-0.115-0.088-0.222-0.195-0.301-0.302c0.08-0.115,0.168-0.213,0.275-0.31
					C273.322,91.182,273.534,91.004,273.756,90.845z"/>
				<path style="fill:#283D93;" d="M272.852,91.678c-1.934-2.466-4.16-4.728-6.661-6.626c-2.005-1.508-4.178-2.794-6.582-3.575
					c-1.792-0.585-3.707-0.887-5.57-0.665c-0.053-0.133-0.089-0.266-0.098-0.417c-0.027-0.293,0.035-0.568,0.195-0.825
					c0.08-0.133,0.177-0.231,0.302-0.302c1.942-0.231,3.947,0.089,5.828,0.701c2.51,0.816,4.781,2.156,6.874,3.734
					c2.617,1.987,4.95,4.356,6.963,6.919c-0.115,0.071-0.231,0.142-0.346,0.222c-0.222,0.159-0.435,0.337-0.63,0.523
					C273.02,91.465,272.931,91.563,272.852,91.678z"/>
				<path style="fill:#172971;" d="M273.153,91.98c0.231,0.177,0.506,0.257,0.807,0.257c0.151-0.009,0.284-0.044,0.408-0.115
					l0.887-0.505l-0.044,0.044l-0.887,0.514c-0.124,0.071-0.257,0.106-0.408,0.106c-0.302,0.009-0.568-0.08-0.807-0.257
					c-0.115-0.089-0.213-0.186-0.302-0.302l0.044-0.044C272.931,91.785,273.038,91.891,273.153,91.98z"/>
				<polygon style="fill:#172971;" points="271.157,95.829 272.044,95.315 272,95.359 271.113,95.874 				"/>
				<path style="fill:#7D90DB;" d="M271.29,95.457c0.009-0.302-0.053-0.568-0.177-0.807c-0.071-0.124-0.142-0.24-0.231-0.337
					l0.887-0.514c0.089,0.106,0.16,0.222,0.231,0.337c0.124,0.239,0.186,0.514,0.178,0.807c0,0.151-0.044,0.275-0.133,0.373
					l-0.887,0.514C271.246,95.723,271.29,95.599,271.29,95.457z"/>
				<path style="fill:#4D65C2;" d="M270.749,95.936c-0.302,0.009-0.568-0.079-0.798-0.257c-0.124-0.089-0.222-0.186-0.311-0.302
					c0.08-0.115,0.169-0.213,0.266-0.31c0.204-0.195,0.408-0.373,0.63-0.532c0.115-0.08,0.231-0.16,0.346-0.222
					c0.089,0.098,0.16,0.213,0.231,0.337c0.124,0.239,0.186,0.506,0.177,0.807c0,0.142-0.044,0.266-0.133,0.372
					C271.042,95.892,270.9,95.936,270.749,95.936z"/>
				<path style="fill:#172971;" d="M266.97,101.773c0.018,0.523-0.062,1.055-0.319,1.508s-0.71,0.834-1.206,0.958
					c-0.497,0.133-1.047,0.009-1.535-0.195c-0.656-0.284-1.198-0.71-1.685-1.197c-0.612-0.621-1.135-1.348-1.517-2.129
					c-0.39-0.781-0.648-1.605-0.754-2.484c-0.08-0.701-0.062-1.446,0.284-2.049c0.257-0.452,0.71-0.834,1.206-0.958
					c0.497-0.133,1.047-0.009,1.535,0.204c0.657,0.275,1.198,0.701,1.685,1.197c0.612,0.612,1.135,1.348,1.517,2.12
					c0.39,0.781,0.647,1.605,0.745,2.484C266.953,101.409,266.962,101.586,266.97,101.773z"/>
				<path style="fill:#283D93;" d="M265.186,94.57c0.204,0.124,0.488,0.337,0.683,0.505c0.204,0.169,0.461,0.426,0.648,0.621
					c0.186,0.204,0.426,0.488,0.594,0.71c0.337,0.47,0.71,1.091,0.949,1.615c0.142,0.302,0.24,0.541,0.346,0.851
					c0.098,0.311,0.159,0.532,0.231,0.843c0.071,0.311,0.098,0.515,0.124,0.816c0.018,0.186,0.027,0.328,0.027,0.505
					c0,0.311-0.018,0.506-0.062,0.79c-0.053,0.284-0.097,0.452-0.195,0.701c-0.097,0.249-0.177,0.399-0.328,0.603
					c-0.133,0.195-0.257,0.32-0.435,0.461c0.089-0.08,0.177-0.169,0.248-0.275c0.302-0.399,0.488-0.843,0.559-1.33
					c0.035-0.24,0.053-0.479,0.053-0.728c0-1.508-0.639-3.007-1.464-4.311c-0.648-1.038-1.419-1.96-2.555-2.528
					c-0.772-0.382-1.703-0.621-2.448-0.328c0.124-0.053,0.248-0.098,0.372-0.133c0.186-0.044,0.443-0.071,0.639-0.062
					c0.195,0,0.47,0.035,0.674,0.08c0.195,0.053,0.47,0.151,0.674,0.231C264.716,94.295,264.991,94.446,265.186,94.57z"/>
				<path style="fill:#4D65C2;" d="M268.63,101.256c0,0.249-0.018,0.488-0.053,0.728c-0.071,0.488-0.257,0.931-0.559,1.331
					c-0.071,0.106-0.16,0.195-0.249,0.275c-0.009,0.009-0.009,0.009-0.018,0.018c-0.027,0.018-0.053,0.044-0.08,0.053
					c-0.062,0.053-0.124,0.098-0.195,0.133c-0.133,0.08-0.727,0.425-0.869,0.514c0.204-0.124,0.382-0.284,0.541-0.479
					c0.302-0.408,0.488-0.851,0.559-1.331c0.026-0.248,0.044-0.488,0.044-0.727c0-0.479-0.062-0.958-0.186-1.428
					c-0.186-0.799-0.515-1.579-0.931-2.306c-0.098-0.195-0.222-0.39-0.337-0.586c-0.656-1.038-1.419-1.951-2.564-2.528
					c-0.842-0.426-1.889-0.665-2.67-0.213c0.142-0.089,0.736-0.435,0.878-0.514c0.071-0.044,0.151-0.08,0.222-0.106
					c0.745-0.293,1.677-0.053,2.448,0.328c1.135,0.568,1.907,1.49,2.555,2.528c0.124,0.195,0.239,0.39,0.346,0.585
					c0.417,0.728,0.745,1.508,0.931,2.306C268.568,100.307,268.63,100.777,268.63,101.256z"/>
				<path style="fill:#283D93;" d="M259.954,98.233c0.106,0.878,0.364,1.703,0.754,2.484c0.382,0.781,0.905,1.508,1.517,2.129
					c0.488,0.488,1.029,0.913,1.685,1.197c0.488,0.204,1.038,0.328,1.535,0.195c0.497-0.124,0.949-0.506,1.206-0.958
					s0.337-0.984,0.319-1.508c-0.009-0.187-0.018-0.364-0.044-0.541c-0.098-0.878-0.355-1.703-0.745-2.484
					c-0.382-0.772-0.905-1.508-1.517-2.12c-0.488-0.497-1.029-0.922-1.685-1.197c-0.488-0.213-1.038-0.337-1.535-0.204
					c-0.496,0.124-0.949,0.506-1.206,0.958C259.892,96.788,259.874,97.533,259.954,98.233z M259.918,96.255
					c0.062-0.204,0.169-0.452,0.257-0.63c0.098-0.169,0.249-0.382,0.39-0.523c0.026-0.035,0.062-0.062,0.098-0.089
					c0.026-0.018,0.053-0.044,0.08-0.071c0.062-0.053,0.124-0.106,0.186-0.151c0.044-0.027,0.089-0.053,0.133-0.08
					c0.781-0.452,1.827-0.213,2.67,0.213c1.144,0.576,1.907,1.49,2.564,2.528c0.816,1.304,1.455,2.803,1.455,4.32
					c0,0.239-0.018,0.479-0.044,0.727c-0.071,0.479-0.257,0.922-0.559,1.331c-0.16,0.195-0.337,0.355-0.541,0.479
					c-0.035,0.018-0.071,0.035-0.098,0.053c-0.213,0.106-0.381,0.16-0.621,0.204c-0.24,0.053-0.408,0.062-0.666,0.044
					c-0.266-0.027-0.435-0.053-0.71-0.133c-0.266-0.08-0.443-0.151-0.71-0.284c-0.257-0.133-0.417-0.231-0.674-0.408
					c-0.248-0.178-0.408-0.302-0.639-0.523c-0.239-0.213-0.399-0.372-0.612-0.621c-0.213-0.239-0.381-0.443-0.568-0.719
					c-0.337-0.47-0.692-1.1-0.914-1.632c-0.115-0.257-0.239-0.603-0.328-0.869c-0.08-0.257-0.168-0.612-0.213-0.869
					c-0.044-0.249-0.089-0.603-0.098-0.852c-0.009-0.231,0-0.541,0.027-0.754C259.803,96.734,259.866,96.442,259.918,96.255z"/>
				<path style="fill:#4D65C2;" d="M261.515,87.216c-1.277-0.47-2.563-0.656-3.858-0.541l0.887-0.514
					c1.295-0.106,2.572,0.071,3.85,0.541c2.572,0.949,4.808,2.342,6.706,4.178c0.958,0.922,1.845,1.898,2.672,2.917l-0.887,0.514
					c-0.827-1.028-1.714-2.004-2.672-2.926C266.314,89.558,264.088,88.166,261.515,87.216z"/>
				<path style="fill:#172971;" d="M257.284,88.316c1.206-0.106,2.404,0.062,3.592,0.506c2.395,0.887,4.47,2.182,6.236,3.885
					c0.896,0.86,1.721,1.765,2.492,2.714c0.08,0.115,0.186,0.222,0.302,0.311c0.231,0.177,0.497,0.257,0.807,0.248
					c0.151,0,0.284-0.035,0.399-0.106L272,95.359c-0.035,0.027-0.062,0.071-0.097,0.089c-0.302,0.168-0.594,0.346-0.887,0.514
					c-0.115,0.062-0.249,0.115-0.391,0.142c-0.142,0.018-0.302,0.018-0.443-0.009c-0.142-0.035-0.284-0.098-0.399-0.177
					c-0.107-0.062-0.195-0.151-0.266-0.24c-0.461-0.576-0.931-1.1-1.419-1.623c-0.807-0.843-1.641-1.597-2.493-2.253
					c-0.842-0.648-1.747-1.233-2.59-1.659c-0.816-0.417-1.756-0.763-2.519-0.949c-0.754-0.178-1.632-0.249-2.28-0.195
					c-0.062,0.009-0.133,0.009-0.195,0c-0.124-0.027-0.249-0.08-0.355-0.16C257.488,88.707,257.364,88.512,257.284,88.316z"/>
				<path style="fill:#283D93;" d="M260.859,88.725c-1.198-0.444-2.404-0.612-3.619-0.506c-0.027-0.071-0.044-0.142-0.053-0.222
					c-0.017-0.071-0.035-0.133-0.035-0.204c-0.026-0.293,0.044-0.568,0.204-0.825c0.08-0.124,0.186-0.222,0.302-0.293
					c1.295-0.115,2.581,0.071,3.858,0.541c2.573,0.949,4.799,2.342,6.697,4.169c0.958,0.922,1.845,1.898,2.67,2.927
					c-0.115,0.062-0.231,0.142-0.346,0.222c-0.222,0.16-0.426,0.337-0.63,0.532c-0.098,0.097-0.186,0.195-0.266,0.31
					c-0.771-0.958-1.605-1.872-2.501-2.741C265.365,90.924,263.272,89.62,260.859,88.725z"/>
				<path style="fill:#283D93;" d="M257.018,88.148c0.018-0.035,0.044-0.053,0.062-0.071c0.035-0.027,0.071-0.053,0.106-0.08
					c0.009,0.08,0.027,0.151,0.053,0.222c-0.027,0-0.062,0.009-0.089,0.009c-0.026,0.009-0.053,0.009-0.08,0.009
					c-0.027,0-0.044-0.009-0.062-0.018C257,88.21,257,88.21,257,88.201c0-0.009-0.009-0.009-0.009-0.018
					C256.991,88.166,257,88.157,257.018,88.148z"/>
				<path style="fill:#283D93;" d="M257.08,88.077c-0.018,0.018-0.044,0.035-0.062,0.071c-0.018,0.009-0.027,0.018-0.027,0.035
					c-0.044-0.106-0.08-0.231-0.089-0.346c-0.009-0.097,0-0.204,0.018-0.302c0.018-0.106,0.053-0.213,0.106-0.319
					c0.044-0.097,0.115-0.195,0.195-0.284c0.08-0.08,0.169-0.151,0.266-0.204c0.293-0.178,0.585-0.346,0.887-0.515
					c0.071-0.045,0.16-0.08,0.24-0.106c0.044-0.009,0.08-0.018,0.124-0.027c0.036-0.009,0.08-0.018,0.115-0.018
					c0.807-0.071,1.8-0.009,2.652,0.16c0.852,0.169,1.845,0.497,2.723,0.887c0.878,0.391,1.827,0.923,2.697,1.517
					c0.887,0.603,1.756,1.304,2.599,2.084c0.852,0.781,1.632,1.605,2.413,2.537c0.097,0.124,0.213,0.257,0.31,0.39
					c-0.018-0.009-0.035-0.009-0.053-0.009c-0.036,0-0.062,0.009-0.098,0.018c-0.053,0.009-0.098,0.035-0.142,0.053
					c-0.062,0.027-0.124,0.062-0.186,0.098c-0.825-1.02-1.712-1.996-2.67-2.918c-1.898-1.836-4.134-3.229-6.706-4.178
					c-1.277-0.47-2.555-0.647-3.85-0.541l-0.887,0.514c-0.115,0.071-0.222,0.168-0.302,0.293c-0.16,0.257-0.231,0.532-0.204,0.825
					c0,0.071,0.018,0.133,0.035,0.204C257.151,88.024,257.116,88.05,257.08,88.077z"/>
				<path style="fill:#172971;" d="M257.045,88.299c-0.018-0.018-0.026-0.053-0.035-0.08c0.018,0.009,0.035,0.018,0.062,0.018
					c0.027,0,0.053,0,0.08-0.009c0.026,0,0.062-0.009,0.089-0.009c1.215-0.106,2.421,0.062,3.619,0.506
					c2.413,0.896,4.506,2.2,6.28,3.912c0.896,0.869,1.73,1.783,2.501,2.741c0.089,0.115,0.186,0.213,0.311,0.302
					c0.231,0.178,0.497,0.266,0.798,0.257c0.151,0,0.293-0.044,0.408-0.106l-0.044,0.044c-0.115,0.071-0.248,0.106-0.399,0.106
					c-0.311,0.009-0.577-0.071-0.807-0.248c-0.115-0.089-0.222-0.195-0.302-0.311c-0.772-0.949-1.597-1.854-2.492-2.714
					c-1.765-1.703-3.841-2.998-6.236-3.885c-1.189-0.444-2.386-0.612-3.592-0.506c0.08,0.195,0.204,0.39,0.381,0.523
					c0.106,0.08,0.231,0.133,0.355,0.16c-0.018,0-0.035,0-0.053,0c-0.133-0.018-0.266-0.053-0.382-0.124
					c-0.124-0.062-0.239-0.142-0.328-0.239C257.16,88.529,257.089,88.423,257.045,88.299z"/>
				<path style="fill:#4D65C2;" d="M260.264,79.969c-1.881-0.612-3.885-0.931-5.828-0.701l0.887-0.506
					c1.942-0.23,3.947,0.08,5.828,0.692c2.51,0.816,4.781,2.155,6.874,3.743c2.617,1.978,4.95,4.346,6.963,6.919l-0.887,0.505
					c-2.014-2.563-4.346-4.932-6.963-6.919C265.046,82.125,262.775,80.785,260.264,79.969z"/>
				<path style="fill:#172971;" d="M259.741,82.098c-0.807-0.239-1.694-0.426-2.439-0.505c-0.745-0.08-1.579-0.08-2.253,0
					c-0.071,0.009-0.151,0.018-0.222,0c-0.124-0.027-0.248-0.08-0.355-0.16c-0.178-0.133-0.311-0.319-0.39-0.523
					c1.845-0.222,3.761,0.089,5.544,0.665c2.386,0.781,4.559,2.049,6.546,3.557c2.492,1.889,4.71,4.143,6.635,6.591
					c0.089,0.115,0.186,0.213,0.302,0.302c0.239,0.177,0.505,0.266,0.807,0.257c0.151,0,0.284-0.035,0.408-0.106l0.887-0.514
					c-0.035,0.027-0.071,0.062-0.106,0.089c-0.293,0.169-0.585,0.337-0.887,0.506c-0.097,0.062-0.204,0.106-0.319,0.133
					c-0.115,0.027-0.24,0.035-0.355,0.027c-0.115-0.009-0.231-0.035-0.328-0.08c-0.106-0.035-0.195-0.089-0.284-0.151
					c-0.071-0.062-0.151-0.133-0.213-0.213c-0.142-0.186-0.284-0.364-0.434-0.541c-1.517-1.863-3.105-3.486-4.79-4.896
					c-1.659-1.393-3.53-2.617-5.198-3.424C261.462,82.702,260.548,82.347,259.741,82.098z"/>
				<path style="fill:#172971;" d="M259.626,81.575c-1.783-0.576-3.699-0.887-5.544-0.665l-0.044-0.097
					c1.863-0.222,3.779,0.08,5.57,0.665c2.404,0.781,4.577,2.067,6.582,3.575c2.501,1.898,4.728,4.16,6.661,6.626l-0.044,0.044
					c-1.925-2.448-4.143-4.701-6.635-6.591C264.185,83.624,262.012,82.356,259.626,81.575z"/>
				<path style="fill:#283D93;" d="M275.469,89.947c-0.018-0.009-0.044-0.009-0.062-0.009c-0.027,0-0.062,0.009-0.098,0.018
					c-0.044,0.018-0.089,0.035-0.142,0.062c-0.062,0.026-0.115,0.062-0.178,0.097c-2.013-2.572-4.346-4.941-6.963-6.919
					c-2.093-1.588-4.364-2.927-6.875-3.743c-1.88-0.612-3.885-0.922-5.828-0.692l-0.887,0.505c-0.124,0.071-0.222,0.169-0.302,0.302
					c-0.16,0.257-0.222,0.532-0.195,0.825c0.009,0.151,0.045,0.284,0.098,0.417l0.044,0.098c0.08,0.204,0.213,0.39,0.39,0.523
					c0.106,0.08,0.231,0.133,0.355,0.16c-0.018,0.009-0.044,0.009-0.071,0c-0.124-0.018-0.257-0.053-0.381-0.115
					c-0.124-0.062-0.23-0.151-0.328-0.248c-0.089-0.098-0.16-0.213-0.213-0.328c-0.018-0.026-0.027-0.062-0.036-0.079
					c0-0.009-0.009-0.009-0.009-0.018c-0.044-0.106-0.071-0.222-0.089-0.328c-0.009-0.106-0.009-0.213,0.009-0.319
					c0.018-0.106,0.053-0.222,0.098-0.328c0.053-0.106,0.124-0.204,0.204-0.293c0.08-0.08,0.169-0.16,0.266-0.213
					c0.302-0.169,0.594-0.337,0.887-0.515c0.044-0.018,0.08-0.035,0.124-0.053c0.098-0.044,0.213-0.08,0.328-0.089
					c0.781-0.097,1.703-0.106,2.537-0.035c0.825,0.071,1.774,0.248,2.635,0.479c0.86,0.231,1.81,0.577,2.688,0.958
					c1.739,0.763,3.646,1.916,5.349,3.22c1.73,1.33,3.389,2.883,4.968,4.657C274.369,88.589,274.919,89.246,275.469,89.947z"/>
				<path style="fill:#4D65C2;" d="M258.978,72.732c-2.501-0.807-5.18-1.206-7.753-0.86l0.887-0.506
					c2.572-0.355,5.251,0.053,7.753,0.852c3.335,1.073,6.351,2.856,9.127,4.967c3.468,2.643,6.547,5.809,9.208,9.242l-0.887,0.507
					c-2.652-3.433-5.739-6.591-9.207-9.234C265.329,75.588,262.314,73.796,258.978,72.732z"/>
				<path style="fill:#283D93;" d="M250.835,73.414c2.483-0.337,5.074,0.053,7.487,0.825c3.229,1.038,6.147,2.759,8.826,4.808
					c3.362,2.555,6.333,5.606,8.906,8.932l-0.028,0.113c-2.564-3.309-5.543-6.419-8.887-8.965c-2.67-2.04-5.579-3.761-8.799-4.79
					c-2.404-0.772-4.985-1.162-7.46-0.825L250.835,73.414z"/>
				<path style="fill:#172971;" d="M278.609,87.8c-0.08,0.089-0.178,0.177-0.302,0.248c-0.293,0.169-0.586,0.337-0.887,0.506
					c-0.097,0.062-0.204,0.106-0.328,0.133c-0.115,0.027-0.231,0.035-0.355,0.027c-0.115-0.018-0.231-0.044-0.337-0.08
					c-0.097-0.044-0.195-0.098-0.275-0.16c-0.08-0.062-0.151-0.133-0.213-0.213c-0.55-0.719-1.109-1.402-1.694-2.076
					c-1.552-1.818-3.158-3.433-4.843-4.896c-1.668-1.455-3.46-2.768-5.171-3.805c-1.685-1.011-3.584-1.907-5.216-2.457
					c-0.816-0.275-1.712-0.505-2.501-0.656c-0.78-0.151-1.641-0.257-2.386-0.284c-0.736-0.027-1.553,0.009-2.235,0.106h-0.044
					c-0.027,0.009-0.053,0.009-0.089,0.009c-0.16-0.009-0.328-0.08-0.461-0.168c-0.177-0.133-0.31-0.319-0.39-0.523
					c2.475-0.337,5.056,0.053,7.46,0.825c3.22,1.029,6.129,2.75,8.799,4.79c3.344,2.546,6.307,5.588,8.87,8.897l0.044-0.044
					c0.089,0.106,0.186,0.213,0.302,0.302c0.239,0.178,0.505,0.257,0.807,0.257c0.15-0.009,0.284-0.044,0.408-0.115l0.887-0.505
					L278.609,87.8z"/>
				<path style="fill:#283D93;" d="M278.689,86.265c-0.009-0.018-0.029-0.004-0.047-0.004c-0.044,0-0.06,0.011-0.096,0.02
					c-0.053,0.018-0.137,0.09-0.19,0.116c-0.062,0.027-0.093-0.007-0.155,0.029c-2.661-3.433-5.739-6.601-9.207-9.244
					c-2.776-2.111-5.792-3.894-9.128-4.967c-2.502-0.798-5.18-1.206-7.753-0.852l-0.887,0.506c-0.124,0.071-0.222,0.168-0.302,0.302
					c-0.16,0.257-0.222,0.532-0.195,0.825c0.017,0.151,0.053,0.284,0.106,0.417l0.044,0.098l-0.222,0.044
					c-0.009-0.018-0.018-0.035-0.027-0.053c-0.018-0.035-0.027-0.071-0.044-0.097c-0.053-0.124-0.08-0.257-0.098-0.399
					c-0.009-0.133,0.009-0.284,0.062-0.426c0.044-0.142,0.115-0.275,0.204-0.39c0.098-0.106,0.204-0.204,0.32-0.266
					c0.293-0.168,0.594-0.346,0.887-0.514c0.044-0.018,0.08-0.044,0.124-0.062c0.089-0.035,0.186-0.071,0.302-0.08
					c0.772-0.106,1.659-0.151,2.466-0.133c0.816,0.027,1.73,0.115,2.573,0.257c0.834,0.151,1.765,0.372,2.626,0.639
					c1.703,0.523,3.654,1.375,5.375,2.351c1.756,0.984,3.583,2.235,5.287,3.628c1.721,1.401,3.371,2.963,4.976,4.701
					C276.737,83.853,277.713,85.006,278.689,86.265z"/>
				<path style="fill:#172971;" d="M254.828,81.591c-0.018,0.009-0.044,0.009-0.071,0c-0.124-0.018-0.257-0.053-0.381-0.115
					c-0.124-0.062-0.23-0.151-0.328-0.248c-0.089-0.098-0.16-0.213-0.213-0.328c-0.018-0.026-0.027-0.062-0.036-0.079l0.239-0.009
					l0.044,0.098c0.08,0.204,0.367,0.287,0.545,0.42C254.734,81.407,254.704,81.564,254.828,81.591z"/>
				<path style="fill:#172971;" d="M252.601,74.087l-0.002-0.002L252.601,74.087z"/>
				<path style="fill:#172971;" d="M251.732,74.202c-0.053,0-0.115,0-0.177-0.009c-0.124-0.018-0.257-0.053-0.382-0.115
					c-0.124-0.062-0.231-0.151-0.328-0.248c-0.071-0.08-0.133-0.177-0.186-0.275l0.222-0.044c0.08,0.204,0.213,0.39,0.39,0.523
					C251.404,74.122,251.572,74.193,251.732,74.202z"/>
				<path style="fill:#4D65C2;" d="M278.937,87.001c0,0.142-0.026,0.284-0.08,0.408c-0.053,0.133-0.124,0.239-0.204,0.337
					l-0.044,0.053l-0.151,0.115c0.08-0.106,0.119-0.21,0.128-0.352c0.009-0.293-0.048-0.556-0.164-0.787
					c-0.062-0.124-0.142-0.244-0.222-0.35c0.062-0.035,0.116-0.072,0.178-0.099c0.053-0.027,0.106-0.044,0.16-0.062
					c0.035-0.009,0.062-0.018,0.106-0.018c0.018,0,0.035,0,0.044,0.018c0.009,0.009,0.009,0.018,0.018,0.027
					c0.071,0.089,0.124,0.195,0.169,0.311C278.919,86.727,278.937,86.859,278.937,87.001z"/>
				<path style="fill:#4D65C2;" d="M277.162,88.538c-0.302,0-0.586-0.051-0.826-0.229c-0.115-0.089-0.238-0.181-0.327-0.288
					c0.089-0.115,0.221-0.255,0.319-0.344c0.204-0.186,0.417-0.364,0.639-0.523c0.115-0.08,0.23-0.151,0.346-0.222
					c0.089,0.106,0.16,0.222,0.222,0.337c0.115,0.24,0.178,0.506,0.169,0.79c-0.009,0.151-0.053,0.266-0.133,0.364
					C277.446,88.494,277.313,88.529,277.162,88.538z"/>
				<path style="fill:#7D90DB;" d="M268.443,99.837l-0.878,0.506c-0.186-0.799-0.515-1.579-0.931-2.306l0.878-0.506
					C267.929,98.258,268.257,99.039,268.443,99.837z"/>
			</g>
			<g>
				<path style="fill:#116BDB;" d="M154.748,372.191c10.302-6.177,20.749-12.151,31.12-18.235
					c10.46-5.945,20.853-12.003,31.368-17.843c-10.314,6.186-20.751,12.154-31.121,18.235
					C175.658,360.289,165.275,366.342,154.748,372.191z"/>
			</g>
		</g>
		<g>
			<path style="opacity:0.3;fill:#A1A3BF;" d="M127.446,292.95c-8.146,4.703-8.146,12.328,0,17.031
				c8.146,4.703,21.353,4.703,29.499,0c8.146-4.703,8.146-12.328,0-17.031C148.799,288.247,135.592,288.247,127.446,292.95z"/>
			<g>
				<path style="fill:#F2C1AE;" d="M116.899,225.949c0,0-0.93,5.951-0.558,6.88c0.372,0.93,2.287,5.667,3.7,6.506
					c1.414,0.839,3.608,0.739,3.608,0.739l2.034-1.759v-11.436l-3.968-3.594l-3.793,1.176L116.899,225.949z"/>
				<path style="fill:#FFD0C5;" d="M131.204,163.783c0.091,1.724-0.402,2.947-0.456,3.111l12.136,7.163c0,0,0.337-5.411,0.52-7.145
					c0.063-0.648,0.949-1.15,0.949-1.15s1.871,0.1,2.172-0.009c0,0,3.44-5.073,3.768-12.291c0.018-0.447,0.027-0.894,0.009-1.323
					c-0.21-6.47-4.27-10.694-11.616-10.694c-6.615,0-9.398,6.415-10.256,10.712c-0.858,4.298,1.296,6.424,2.318,9.298
					C131.049,162.287,131.177,163.081,131.204,163.783z"/>
				<path style="fill:#030F33;" d="M123.028,292.797c0,0-0.297,4.259,0.076,7.401c0,0,1.068,3.049,4.826,1.929
					c0,0,3.226-2.268,3.384-2.519c0.111-0.177,0.32-1.701,0.32-1.701s1.359-0.258,4.252-1.098c2.893-0.84,7.75-4.14,7.514-4.776
					c-0.236-0.635-2.327-2.129-3.614-2.129c-1.287,0-9.964,0-9.964,0L123.028,292.797z"/>
				<path style="fill:#030F33;" d="M162.239,307.165c0.108,0.298-1.095,2.824-4.251,4.621c-2.179,1.241-4.737,1.617-7.228,1.331
					c-1.242-0.143-2.885-0.23-4.491-0.009c0,0-0.017,1.018-0.141,1.207c-0.124,0.189-6.281,1.41-8.241-0.144
					c-1.96-1.554-0.505-8.807,0.156-9.149c1.631-0.844,7.475-1.854,8.954-0.801c1.633,1.163,9.33,2.052,12.754,1.534
					C163.177,305.236,162.239,307.165,162.239,307.165z"/>
				<path style="fill:#003684;" d="M137.185,227.975l-11.502,3.463c0,0-1.174,2.982-1.204,12.404
					c-0.022,6.691-0.779,13.353-2.12,19.908c-0.403,1.97-0.679,4.038-0.641,5.922c0.127,6.218-0.004,22.362-0.004,22.362
					c0,0.919,0.607,1.837,1.821,2.538c2.428,1.401,6.363,1.401,8.791,0c1.214-0.701,1.821-1.619,1.821-2.538
					c0,0-2.816-18.555,3.038-35.941C143.038,238.706,137.185,227.975,137.185,227.975z"/>
				<path style="fill:#084DA1;" d="M152.734,230.822l-17.056,9.221c-0.127,0.186,1.364,19.476,1.507,24.679
					c0.143,5.203-2.41,8.503-1.514,18.528c0.896,10.026,1.508,22.164,1.52,21.875c0-0.001,0.005-0.001,0.005-0.002
					c0.03,0.896,0.626,1.786,1.809,2.469c2.428,1.402,6.363,1.402,8.791,0c1.214-0.701,1.821-1.619,1.82-2.538
					c0,0-2.517-28.15,0.91-40.586C153.952,252.031,155.703,243.496,152.734,230.822z"/>
				<path style="fill:#DB4B18;" d="M123.822,168.02c0,0-5.812,0.639-6.148,7.363c-0.353,7.048-1.575,50.059-1.575,50.059
					c0,0.606,0.4,1.211,1.2,1.673c1.6,0.924,4.195,0.924,5.795,0c0.8-0.462,1.2-1.067,1.2-1.673c0,0,1.544-35.736,1.544-43.204
					C125.838,174.77,123.822,168.02,123.822,168.02z"/>
				<path style="opacity:0.15;fill:#D85729;" d="M123.822,168.02c0,0-5.812,0.639-6.148,7.363
					c-0.353,7.048-1.575,50.059-1.575,50.059c0,0.606,0.4,1.211,1.2,1.673c1.6,0.924,4.195,0.924,5.795,0
					c0.8-0.462,1.2-1.067,1.2-1.673c0,0,1.544-35.736,1.544-43.204C125.838,174.77,123.822,168.02,123.822,168.02z"/>
				<path style="fill:#DB4B18;" d="M120.374,184.806c1.106,7.246,3.676,28.177,3.302,32.685c-0.356,4.298,0.082,14.691,0.137,15.275
					c0,0,0.055,1.04,0.064,1.04c0.064,2.181,1.533,4.353,4.416,6.013c5.219,3.011,13.304,3.358,19.18,1.04
					c0.775-0.301,1.505-0.648,2.19-1.04c1.332-0.766,2.354-1.643,3.084-2.582c0.328-0.42,0.602-0.858,0.812-1.296
					c0.036-0.082,0.073-0.155,0.091-0.237c0.1-0.219,0.183-0.456,0.237-0.684c0.036-0.101,0.064-0.201,0.082-0.301
					c0.064-0.292,0.1-0.593,0.11-0.894c0.009,0,0.018,0,0.018,0s0.547-15.493,0.94-28.934c0.237-7.884,0.429-15.065,0.429-18.003
					c0-5.247-8.942-11.507-8.942-11.507l-4.827-2.108l-13.194-5.776c0,0-5.164,0.082-7.163,1.314
					C119.342,170.052,119.641,180.005,120.374,184.806z"/>
				<path style="fill:#030F33;" d="M127.208,149.877c0.383,7.026,3.96,13.368,3.96,13.368s3.312,1.487,6.57,1.259
					c0.192-0.009,0.383-0.027,0.575-0.055c0.757-0.1,1.487-0.301,2.172-0.639c0.411-0.21,0.803-0.447,1.177-0.712
					c0.419-1.177,1.752-5.895,1.569-6.597c-0.529-2.071-0.182-3.896,2.345-4.143c2.528-0.246,1.487,4.316,1.487,4.316l2.062-0.21
					l0.168-2.697c0.101-1.623,0.874-3.068,1.895-4.334c0.151-0.188,0.249-0.444,0.31-0.873c-0.101-1.003-0.402-4.269-1.214-5.646
					c-0.009-0.037-0.028-0.073-0.064-0.11c-1.46-2.418-4.545-4.763-10.95-4.863c-2.984-0.046-5.238,0.411-6.935,1.186
					C126.405,141.802,127.208,148.226,127.208,149.877z"/>
				<path style="fill:#F7F8FB;" d="M130.241,165.182c0,0,0.459-0.849,0.566-0.849c0.106,0,12.268,3.641,13.47,9.157l-12.657-6.541
					L130.241,165.182z"/>
			</g>
			<path style="fill:#003684;" d="M135.4,242.602c2.246,0.106,4.478,0,6.693-0.286c2.209-0.298,4.403-0.811,6.442-1.706
				c-2.069,0.825-4.265,1.259-6.469,1.48c-2.204,0.209-4.435,0.237-6.628,0.058L135.4,242.602z"/>
			<path style="fill:#FFDDD2;" d="M161.879,242.263c0.166,0.174,1.664,2.754,1.414,6.166c-0.249,3.412-1.414,5.462-1.414,5.462
				s-3.329,2.042-3.828,1.702c-0.499-0.34-2.584-0.839-2.584-0.839v-1.248c0,0,1.753-0.416,2.168-1.831
				c0.416-1.415-1.831-5.082-0.832-8.533C157.801,239.691,161.879,242.263,161.879,242.263z"/>
			<g>
				<path style="fill:#FC6C44;" d="M143.404,194.779c0,0,0.137,0.702,0.383,1.898c0.94,4.571,3.048,16.707,5.301,24.034
					c1.624,5.283,3.495,10.667,4.799,14.308c0.913,2.527,1.542,6.953,1.615,7.199c0,0.009,0.009,0.018,0.009,0.027
					c0.128,0.483,0.511,0.949,1.15,1.323c1.606,0.931,4.197,0.931,5.803,0c0.794-0.465,1.195-1.068,1.195-1.67
					c0-0.128-0.018-0.265-0.055-0.392c-0.493-2.92-4.49-21.908-5.785-29.409c-1.378-8.003-2.281-24.326-2.281-24.326
					c0-0.31-0.027-0.611-0.073-0.885c-0.21-1.296-0.922-2.153-1.944-2.473c-1.077-0.347-2.5-0.11-4.051,0.785
					C146.123,187.142,143.404,191.422,143.404,194.779z"/>
			</g>
			<path style="fill:#FC6C44;" d="M128.283,167.497c0,0,1.314-2.628,1.596-2.628c0.281,0,5.294,1.224,8.637,3.602
				c6.032,4.291,7.792,6.913,7.792,6.913s-9.2-1.68-14.082-3.75C127.344,169.563,128.283,167.497,128.283,167.497z"/>
		</g>
	</g>
	<g>
		<g>
			<g>
				<polygon style="fill:#084DA1;" points="382.789,290.682 335.646,303.054 320.368,283.661 304.5,263.507 297.264,254.314 
					344.407,241.942 368.993,273.16 375.049,280.856 				"/>
				<path style="fill:#E0E4FF;" d="M381.034,291.862v12.127c-15.321,4.028-30.628,8.042-45.935,12.07
					c-0.043,0-0.101,0.014-0.144,0.014c-0.043,0.014-0.101,0.014-0.144,0.029c-0.043,0-0.101,0-0.144-0.014
					c-0.043,0-0.086,0-0.129-0.014c-0.029,0-0.057-0.014-0.086-0.029l-0.014-10.876c0-0.158,0.029-0.317,0.101-0.475
					c0.159-0.302,0.374-0.547,0.647-0.734c0.144-0.087,0.302-0.144,0.46-0.187L381.034,291.862z"/>
				<path style="opacity:0.5;fill:#ADB8E8;" d="M381.034,291.862v1.352c-15.537,4.086-31.074,8.157-46.597,12.243v-0.288
					c0-0.158,0.029-0.317,0.101-0.475c0.159-0.302,0.374-0.547,0.647-0.734c0.144-0.087,0.302-0.144,0.46-0.187L381.034,291.862z"/>
				<path style="fill:#172971;" d="M381.03,302.143l1.755,2.23l-47.143,12.372c-0.23,0.057-0.475,0.072-0.691-0.014
					c-0.173-0.057-0.331-0.187-0.417-0.345c-0.058-0.115-0.087-0.23-0.087-0.345c0.029,0.014,0.057,0.029,0.087,0.029
					c0.043,0.014,0.086,0.014,0.129,0.014c0.043,0.014,0.101,0.014,0.144,0.014c0.043-0.014,0.101-0.014,0.144-0.029
					c0.043,0,0.101-0.014,0.144-0.014c15.307-4.028,30.614-8.042,45.935-12.07C381.03,303.352,381.03,302.747,381.03,302.143z"/>
				<path style="fill:#0F5EBF;" d="M382.785,291.397l-1.755,0.46l-45.388,11.912c-0.159,0.043-0.317,0.101-0.46,0.187
					c-0.273,0.187-0.489,0.431-0.647,0.734c-0.072,0.158-0.101,0.316-0.101,0.475v10.818c0,0.014,0,0.043,0,0.058
					c0,0.115,0.043,0.23,0.101,0.345c0.086,0.158,0.244,0.288,0.417,0.345c0.216,0.086,0.46,0.072,0.691,0.014l47.143-12.372v0.72
					l-47.143,12.372c-0.374,0.101-0.791,0.115-1.151-0.014c-0.23-0.086-0.431-0.23-0.59-0.417c-0.043-0.043-0.072-0.115-0.115-0.173
					c-0.101-0.202-0.158-0.446-0.158-0.676V305.38c0-0.273,0.058-0.532,0.187-0.791c0.245-0.518,0.604-0.921,1.079-1.223
					c0.23-0.144,0.489-0.244,0.748-0.316l47.143-12.372V291.397z"/>
				<path style="fill:#003684;" d="M335.646,303.054c-0.259,0.072-0.518,0.172-0.748,0.316c-0.475,0.302-0.835,0.705-1.079,1.223
					c-0.129,0.259-0.187,0.518-0.187,0.791v10.804c0,0.23,0.058,0.475,0.158,0.676c-10.977-13.926-21.939-27.851-32.901-41.763
					c-1.453-1.842-2.906-3.697-4.359-5.539c-0.331-0.417-0.662-0.849-0.993-1.266c-0.057-0.058-0.086-0.129-0.129-0.187
					c-0.072-0.144-0.115-0.287-0.129-0.431c-0.014-0.072-0.014-0.144-0.014-0.216v-10.818c0-0.273,0.057-0.532,0.173-0.791
					c0.245-0.518,0.604-0.921,1.079-1.223c0.245-0.144,0.489-0.244,0.748-0.316l7.236,9.193l15.868,20.155L335.646,303.054z"/>
				<path style="opacity:0.25;fill:#ADB8E8;" d="M320.368,283.028l32.282,14.185l22.399-16.99l-6.057-7.697l-48.898-21.478
					L304.5,262.873l-2.402,1.827l-0.312,0.237l-6.521-8.293v10.818c0,0.072,0,0.144,0.014,0.216
					c0.014,0.144,0.057,0.287,0.129,0.431c0.043,0.058,0.072,0.13,0.129,0.187c0.331,0.417,0.662,0.849,0.993,1.266
					c1.453,1.842,2.906,3.697,4.359,5.539c10.962,13.911,21.924,27.837,32.901,41.763c-0.101-0.201-0.158-0.446-0.158-0.676v-10.804
					l-19.133-24.312l-0.763-0.968l0.763,0.335L320.368,283.028z"/>
				<g>
					<polygon style="fill:#354DAD;" points="335.646,303.054 359.197,296.796 382.785,290.678 359.234,296.935 					"/>
				</g>
				<g>
					<polygon style="fill:#354DAD;" points="335.646,316.743 359.197,310.485 382.785,304.366 359.234,310.624 					"/>
				</g>
			</g>
			<g>
				<polygon style="fill:#FC6C44;" points="380.684,264.477 354.084,284.661 294.942,258.665 321.528,238.496 				"/>
				<path style="fill:#FC6C44;" d="M353.105,295.436c-0.043,0-0.086-0.014-0.13-0.043c-0.029-0.015-0.114,0.025-0.143-0.004
					c-0.043-0.029-0.232-0.283-0.261-0.311l0.246,0.142c0.043,0,0.101,0,0.144-0.014c0.044-0.014,0.101-0.029,0.144-0.043
					c0.043-0.029,0.101-0.043,0.144-0.072c0.057-0.029,0.101-0.057,0.158-0.086c0.043-0.029,0.086-0.057,0.144-0.101l26.182-19.867
					c0-0.159,0-0.331,0-0.489l0.95,0.417l-26.6,20.169c-0.043,0.043-0.087,0.072-0.144,0.101c-0.043,0.043-0.101,0.072-0.144,0.086
					c-0.058,0.029-0.101,0.057-0.158,0.072c-0.043,0.014-0.086,0.029-0.144,0.043c-0.043,0.014-0.086,0.029-0.129,0.029
					c-0.057,0-0.101,0-0.144,0C353.177,295.465,353.134,295.451,353.105,295.436z"/>
				<path style="fill:#E0E4FF;" d="M379.739,265.75v9.293l-26.183,19.867c-0.058,0.043-0.101,0.072-0.144,0.101
					c-0.058,0.029-0.101,0.057-0.158,0.086c-0.043,0.029-0.101,0.043-0.144,0.072c-0.043,0.014-0.101,0.029-0.144,0.043
					c-0.043,0.014-0.101,0.014-0.144,0.014c0,0-0.086-0.029-0.129-0.072c-0.029-0.043-0.058-0.086-0.072-0.129
					c-0.029-0.043-0.043-0.101-0.057-0.144c-0.029-0.058-0.043-0.115-0.057-0.173c-0.014-0.043-0.014-0.115-0.029-0.173
					s-0.014-0.129-0.014-0.187c0-0.057-0.014-0.115-0.014-0.173v-5.51c0-0.331,0.043-0.647,0.129-0.964
					c0.029-0.129,0.072-0.245,0.115-0.36c0.173-0.504,0.417-0.978,0.719-1.424c0.202-0.273,0.417-0.503,0.676-0.705L379.739,265.75z
					"/>
				<path style="opacity:0.5;fill:#ADB8E8;" d="M379.739,265.75v1.065l-27.046,20.529c0.173-0.504,0.417-0.978,0.719-1.424
					c0.202-0.273,0.417-0.503,0.676-0.705L379.739,265.75z"/>
				<path style="fill:#FFD562;" d="M352.976,295.393c0.043,0.029,0.087,0.043,0.13,0.043c0.029,0.014,0.072,0.029,0.115,0.029
					c0.043,0,0.086,0,0.144,0c0.043,0,0.086-0.014,0.129-0.029c0.058-0.014,0.101-0.029,0.144-0.043
					c0.058-0.015,0.101-0.043,0.158-0.072c0.043-0.014,0.101-0.043,0.144-0.086c0.057-0.029,0.101-0.057,0.144-0.101l26.6-20.169
					v0.547l-26.6,20.184c-0.216,0.158-0.446,0.302-0.705,0.36c-0.216,0.043-0.46,0.043-0.647-0.029
					c-0.058-0.029-0.101-0.043-0.144-0.072c-0.216-0.144-0.36-0.403-0.446-0.676c-0.072-0.259-0.101-0.518-0.101-0.791v-5.524
					c0-0.403,0.058-0.806,0.158-1.209c0.216-0.791,0.561-1.539,1.036-2.215c0.244-0.345,0.532-0.633,0.849-0.877l26.6-20.184v0.547
					l-0.95,0.719l-25.65,19.465c-0.259,0.201-0.475,0.431-0.676,0.705c-0.374,0.547-0.662,1.136-0.834,1.784
					c-0.086,0.317-0.13,0.633-0.13,0.964v5.51c0,0.058,0.015,0.115,0.015,0.173c0,0.057,0,0.129,0.014,0.187
					c0.014,0.058,0.014,0.129,0.029,0.173c0.014,0.057,0.029,0.115,0.058,0.173c0.014,0.043,0.029,0.101,0.057,0.144
					c0.014,0.043,0.043,0.086,0.072,0.129c0.029,0.029,0.058,0.072,0.086,0.101c0.029,0.029,0.057,0.057,0.101,0.086
					C352.904,295.364,352.947,295.378,352.976,295.393z"/>
				<path style="fill:#DB4B18;" d="M354.089,284.668c-0.317,0.245-0.604,0.532-0.849,0.878c-0.36,0.518-0.647,1.079-0.863,1.669
					c-0.072,0.187-0.129,0.36-0.173,0.547c-0.101,0.403-0.158,0.806-0.158,1.208v5.525c0,0.273,0.029,0.532,0.101,0.791
					c0.086,0.273,0.23,0.532,0.446,0.676c-19.68-8.632-39.332-17.264-59.012-25.91c-0.13-0.057-0.259-0.158-0.345-0.273
					c-0.129-0.158-0.201-0.345-0.259-0.532c-0.058-0.245-0.087-0.489-0.087-0.734v-5.524c0-0.403,0.058-0.806,0.158-1.208
					c0.216-0.806,0.561-1.539,1.05-2.23c0.245-0.331,0.518-0.633,0.849-0.878L354.089,284.668z"/>
				<g>
					<polygon style="fill:#FFFFFF;" points="380.684,264.477 367.427,274.626 354.084,284.661 367.34,274.512 					"/>
				</g>
				<g>
					<polygon style="fill:#FFFFFF;" points="380.684,274.965 367.427,285.113 354.084,295.148 367.34,284.999 					"/>
				</g>
			</g>
		</g>
		<path style="opacity:0.25;fill:#ADB8E8;" d="M352.593,295.961c-19.68-8.632-39.332-17.264-59.012-25.91
			c-0.13-0.057-0.259-0.158-0.345-0.273c-0.129-0.158-0.201-0.345-0.259-0.532c-0.058-0.245-0.087-0.489-0.087-0.734v-5.524
			c0-0.403,0.058-0.806,0.158-1.208l59.328,25.434c-0.072,0.187-0.129,0.36-0.173,0.547c-0.101,0.403-0.158,0.806-0.158,1.208v5.525
			c0,0.273,0.029,0.532,0.101,0.791C352.233,295.558,352.377,295.817,352.593,295.961z"/>
	</g>
</g>
</svg>
